<svg id="Capa_1" enable-background="new 0 0 512 512" height="512" viewBox="0 0 512 512" width="512" xmlns="http://www.w3.org/2000/svg"><g><path d="m256 434.106c-14.002 0-25.394 11.392-25.394 25.394s11.392 25.394 25.394 25.394c14.003 0 25.394-11.392 25.394-25.394s-11.391-25.394-25.394-25.394zm0 35.788c-5.731 0-10.394-4.663-10.394-10.394s4.663-10.394 10.394-10.394 10.394 4.663 10.394 10.394-4.663 10.394-10.394 10.394z"/><path d="m372.326 383.233c4.143 0 7.5-3.358 7.5-7.5v-6.103c13.273-3.199 21.787-14.461 23.654-25.567 2.414-14.357-5.087-26.836-19.108-31.792-8.219-2.905-17.321-6.424-22.514-10.498-2.029-1.591-2.906-4.92-2.235-8.48.657-3.489 3.025-7.719 7.695-9.126 10.501-3.16 17.349 2.482 17.827 2.893l1.76 1.615c3.052 2.801 7.796 2.597 10.598-.455 2.8-3.052 2.597-7.796-.455-10.597l-1.789-1.642c-.352-.325-6.063-5.466-15.433-7.21v-4.82c0-4.142-3.357-7.5-7.5-7.5s-7.5 3.358-7.5 7.5v5.349c-.605.151-1.216.318-1.834.504-9.29 2.798-16.229 10.734-18.109 20.71-1.723 9.139 1.235 17.976 7.718 23.061 5.562 4.362 13.318 8.081 26.772 12.837 10.391 3.673 9.757 12.535 9.316 15.163-1.123 6.676-6.737 13.89-16.412 13.954-8.87.068-11.882-.419-18.824-4.962-3.465-2.268-8.113-1.296-10.382 2.171-2.268 3.466-1.296 8.115 2.171 10.382 7.655 5.008 13.013 6.694 19.585 7.207v5.404c-.001 4.144 3.357 7.502 7.499 7.502z"/><path d="m111.998 117.1h33.755c12.407 0 22.5-10.093 22.5-22.5v-33.756c0-12.407-10.093-22.5-22.5-22.5h-33.755c-12.407 0-22.5 10.093-22.5 22.5v33.756c0 12.407 10.093 22.5 22.5 22.5zm-7.5-56.256c0-4.136 3.364-7.5 7.5-7.5h33.755c4.136 0 7.5 3.364 7.5 7.5v33.756c0 4.136-3.364 7.5-7.5 7.5h-33.755c-4.136 0-7.5-3.364-7.5-7.5z"/><path d="m89.498 203.654c0 12.407 10.093 22.5 22.5 22.5h33.755c12.407 0 22.5-10.093 22.5-22.5v-33.755c0-12.407-10.093-22.5-22.5-22.5h-33.755c-12.407 0-22.5 10.093-22.5 22.5zm15-33.756c0-4.136 3.364-7.5 7.5-7.5h33.755c4.136 0 7.5 3.364 7.5 7.5v33.755c0 4.136-3.364 7.5-7.5 7.5h-33.755c-4.136 0-7.5-3.364-7.5-7.5z"/><path d="m197.098 117.1h199.309c4.143 0 7.5-3.358 7.5-7.5s-3.357-7.5-7.5-7.5h-199.309c-4.142 0-7.5 3.358-7.5 7.5s3.358 7.5 7.5 7.5z"/><path d="m197.098 194.276h199.309c4.143 0 7.5-3.358 7.5-7.5s-3.357-7.5-7.5-7.5h-199.309c-4.142 0-7.5 3.358-7.5 7.5s3.358 7.5 7.5 7.5z"/><path d="m197.098 303.33h99.655c4.143 0 7.5-3.358 7.5-7.5s-3.357-7.5-7.5-7.5h-99.655c-4.142 0-7.5 3.358-7.5 7.5s3.358 7.5 7.5 7.5z"/><path d="m197.098 335.207h99.655c4.143 0 7.5-3.358 7.5-7.5s-3.357-7.5-7.5-7.5h-99.655c-4.142 0-7.5 3.358-7.5 7.5 0 4.143 3.358 7.5 7.5 7.5z"/><path d="m96.998 383.656h199.755c4.143 0 7.5-3.358 7.5-7.5s-3.357-7.5-7.5-7.5h-199.755c-4.142 0-7.5 3.358-7.5 7.5s3.358 7.5 7.5 7.5z"/><path d="m420 0h-328c-23.435 0-42.5 19.065-42.5 42.5v162.157c0 4.142 3.358 7.5 7.5 7.5s7.5-3.358 7.5-7.5v-162.157c0-15.164 12.336-27.5 27.5-27.5h328c15.164 0 27.5 12.336 27.5 27.5v364.5h-383v-169.657c0-4.142-3.358-7.5-7.5-7.5s-7.5 3.358-7.5 7.5v232.157c0 23.435 19.065 42.5 42.5 42.5h328c23.435 0 42.5-19.065 42.5-42.5v-427c0-23.435-19.065-42.5-42.5-42.5zm0 497h-328c-15.164 0-27.5-12.336-27.5-27.5v-47.5h383v47.5c0 15.164-12.336 27.5-27.5 27.5z"/><path d="m197.098 226.154h199.309c4.143 0 7.5-3.358 7.5-7.5s-3.357-7.5-7.5-7.5h-199.309c-4.142 0-7.5 3.358-7.5 7.5s3.358 7.5 7.5 7.5z"/><path d="m396.407 85.222c4.143 0 7.5-3.358 7.5-7.5s-3.357-7.5-7.5-7.5h-41.131c-4.143 0-7.5 3.358-7.5 7.5s3.357 7.5 7.5 7.5z"/><path d="m197.098 85.222h125.492c4.143 0 7.5-3.358 7.5-7.5s-3.357-7.5-7.5-7.5h-125.492c-4.142 0-7.5 3.358-7.5 7.5s3.358 7.5 7.5 7.5z"/><path d="m89.498 312.707c0 12.407 10.093 22.5 22.5 22.5 4.142 0 7.5-3.358 7.5-7.5s-3.358-7.5-7.5-7.5c-4.136 0-7.5-3.364-7.5-7.5v-33.755c0-4.136 3.364-7.5 7.5-7.5h33.755c4.136 0 7.5 3.364 7.5 7.5v33.755c0 4.136-3.364 7.5-7.5 7.5-4.142 0-7.5 3.358-7.5 7.5s3.358 7.5 7.5 7.5c12.407 0 22.5-10.093 22.5-22.5v-33.755c0-12.407-10.093-22.5-22.5-22.5h-33.755c-12.407 0-22.5 10.093-22.5 22.5z"/></g></svg>