<svg id="Layer_1" height="512" viewBox="0 0 1000 1000" width="512" xmlns="http://www.w3.org/2000/svg" data-name="Layer 1"><path d="m697 916h-597a16 16 0 0 1 -16-16v-800a16 16 0 0 1 16-16h597a16 16 0 0 1 16 16v105.78a16 16 0 0 1 -32 0v-89.78h-565v768h565v-208.72a16 16 0 0 1 32 0v224.72a16 16 0 0 1 -16 16z"/><path d="m615.16 847.9h-433.36a16 16 0 0 1 0-32h433.36a16 16 0 0 1 0 32z"/><path d="m271 847.9h-51.15a16 16 0 0 1 -16-16v-117.56a16 16 0 0 1 16-16h51.15a16 16 0 0 1 16 16v117.56a16 16 0 0 1 -16 16zm-35.12-32h19.12v-85.56h-19.15z"/><path d="m374.9 847.9h-51.11a16 16 0 0 1 -16-16v-163.57a16 16 0 0 1 16-16h51.11a16 16 0 0 1 16 16v163.57a16 16 0 0 1 -16 16zm-35.11-32h19.11v-131.57h-19.11z"/><path d="m582.77 847.9h-51.11a16 16 0 0 1 -16-16v-163.57a16 16 0 0 1 16-16h51.11a16 16 0 0 1 16 16v163.57a16 16 0 0 1 -16 16zm-35.11-32h19.11v-131.57h-19.11z"/><path d="m478.84 847.9h-51.12a16 16 0 0 1 -16-16v-219.79a16 16 0 0 1 16-16h51.12a16 16 0 0 1 16 16v219.79a16 16 0 0 1 -16 16zm-35.12-32h19.12v-187.79h-19.12z"/><path d="m200.52 473a50.65 50.65 0 1 1 50.65-50.65 50.71 50.71 0 0 1 -50.65 50.65zm0-69.3a18.65 18.65 0 1 0 18.65 18.65 18.66 18.66 0 0 0 -18.65-18.69z"/><path d="m304.81 291.06a50.65 50.65 0 1 1 50.65-50.65 50.71 50.71 0 0 1 -50.65 50.65zm0-69.3a18.65 18.65 0 1 0 18.65 18.65 18.67 18.67 0 0 0 -18.65-18.65z"/><path d="m501.69 471.63a50.66 50.66 0 1 1 50.65-50.63 50.71 50.71 0 0 1 -50.65 50.63zm0-69.31a18.66 18.66 0 1 0 18.65 18.68 18.68 18.68 0 0 0 -18.65-18.68z"/><path d="m596.45 340.31a50.66 50.66 0 1 1 50.65-50.66 50.72 50.72 0 0 1 -50.65 50.66zm0-69.31a18.66 18.66 0 1 0 18.65 18.65 18.68 18.68 0 0 0 -18.65-18.65z"/><path d="m476.14 413.53a15.92 15.92 0 0 1 -10.81-4.21l-145.77-133.67a16 16 0 0 1 21.63-23.59l145.81 133.68a16 16 0 0 1 -10.82 27.79z"/><path d="m522 408.85a16 16 0 0 1 -13-25.36l54.19-75.11a16 16 0 0 1 25.95 18.72l-54.14 75.11a16 16 0 0 1 -13 6.64z"/><path d="m217.74 408.25a16 16 0 0 1 -13.87-24l69.83-121.73a16 16 0 0 1 27.76 15.92l-69.83 121.77a16 16 0 0 1 -13.89 8.04z"/><path d="m565.7 570.8a216.36 216.36 0 0 1 -56.06-7.43 213.94 213.94 0 1 1 56.06 7.43zm-.65-398.7a183.36 183.36 0 1 0 159 91.71 182 182 0 0 0 -111.27-85.38 184.31 184.31 0 0 0 -47.73-6.33z"/><path d="m838.56 906a78 78 0 0 1 -20.2-2.67 77.05 77.05 0 0 1 -47.09-36.14 11.13 11.13 0 0 1 -.57-1.08l-122.21-255a16 16 0 0 1 6.43-20.78l69.08-39.85a16 16 0 0 1 21.2 4.81l159.8 233.33c.23.33.44.68.65 1a77.55 77.55 0 0 1 -28.39 106 77.08 77.08 0 0 1 -38.7 10.38zm-39.29-54.28a45.55 45.55 0 0 0 61.94 16.19 45.56 45.56 0 0 0 17-61.74l-151-220.55-43.44 25.08z"/><path d="m697.48 600.28a16 16 0 0 1 -13.87-8l-32.49-56.28a16 16 0 1 1 27.71-16l32.49 56.27a16 16 0 0 1 -13.84 24z"/></svg>